<svg id="Layer_1cloud-services" data-name="Layer 1" xmlns="http://www.w3.org/2000/svg" viewBox="0 0 140 96" width="140px" height="96px">
									<defs>
										<style>
											.cls-2-1 {
												fill: #3e3e3e;
											}
											
											.cls-2-1,
											.cls-2-2 {
												fill-rule: evenodd;
											}
											
											.cls-2-2 {
												fill: #a5bf09;
											}
											
											.cls-2-3 {
												fill: #fff;
											}
										</style>
									</defs>
									<title>homepage-icons</title>
									<path class="cls-2-1" d="M106.24,32A24,24,0,1,0,59.69,20.27a16,16,0,0,0-27,16.93,20.5,20.5,0,1,0,7.34,40.28,18,18,0,0,0,35,4.2A16.58,16.58,0,0,0,85,85,17.14,17.14,0,0,0,101.7,70.62,19.49,19.49,0,1,0,106.24,32Z"
									/>
									<path class="cls-2-2" d="M51.5,51A3.5,3.5,0,1,1,48,54.5,3.5,3.5,0,0,1,51.5,51Z" />
									<path class="cls-2-2" d="M83.5,33A3.5,3.5,0,1,1,80,36.5,3.5,3.5,0,0,1,83.5,33Z" />
									<path class="cls-2-3" d="M64,51.27c.07.27.11.55.16.83a12.8,12.8,0,0,0-1.86-4.63c.11.16.23.31.32.48l1.21-3h0l-1.37-1.37L61.1,42.16l-3,1.21c.16.1.31.22.47.32a12.81,12.81,0,0,0-4.61-1.86c.27.05.54.09.81.16l-1.29-3H49.56l-1.29,3c.27-.07.54-.11.81-.16a23.55,23.55,0,0,0-4.14,1.54l-3-1.21L39.16,44.9l1.21,3c.1-.17.22-.31.32-.47a12.8,12.8,0,0,0-1.86,4.62c.05-.28.09-.56.16-.83l-3,1.29v3.88l3,1.29c-.07-.27-.11-.56-.16-.83a12.81,12.81,0,0,0,1.87,4.64c-.11-.16-.23-.31-.33-.48l-1.21,3,2.74,2.74,3-1.21c-.17-.1-.32-.22-.48-.33a12.79,12.79,0,0,0,4.64,1.87c-.28-.05-.56-.09-.83-.16l1.29,3h3.88l1.29-3c-.27.07-.55.11-.83.16a12.79,12.79,0,0,0,4.63-1.87c-.16.11-.31.23-.48.33l3,1.21,2.74-2.74-1.21-3c-.1.17-.22.32-.33.48a12.82,12.82,0,0,0,1.87-4.64c-.05.28-.09.56-.16.83l3-1.29V52.56ZM51.5,63A8.5,8.5,0,1,1,60,54.5,8.5,8.5,0,0,1,51.5,63Z"
									/>
									<path class="cls-2-3" d="M96,33.27c.07.27.11.55.16.83a12.79,12.79,0,0,0-1.86-4.62c.11.16.23.31.32.48l1.21-3h0l-1.37-1.37-1.37-1.37-3,1.21c.16.1.31.22.47.32a12.78,12.78,0,0,0-4.6-1.86c.27.05.54.09.81.16l-1.29-3H81.57l-1.29,3c.26-.07.54-.11.81-.16A23.32,23.32,0,0,0,77,25.38l-3-1.21-2.74,2.74,1.21,3c.1-.16.22-.31.32-.47a12.8,12.8,0,0,0-1.86,4.62c.05-.28.09-.56.16-.83l-3,1.29v3.87l3,1.29c-.07-.27-.11-.56-.16-.83a12.8,12.8,0,0,0,1.87,4.64c-.11-.16-.23-.31-.33-.48l-1.21,3,2.74,2.74,3-1.21c-.17-.1-.32-.22-.48-.33a12.76,12.76,0,0,0,4.63,1.87c-.28-.05-.56-.09-.83-.16l1.29,3h3.87l1.29-3c-.27.07-.55.11-.83.16a12.76,12.76,0,0,0,4.63-1.87c-.16.11-.31.23-.48.33l3,1.21,2.74-2.74-1.21-3c-.1.17-.22.32-.33.48a12.81,12.81,0,0,0,1.87-4.64c-.05.28-.09.56-.16.83l3-1.29V34.56ZM83.5,45A8.5,8.5,0,1,1,92,36.5,8.5,8.5,0,0,1,83.5,45Z"
									/>
								</svg>