<svg xmlns="http://www.w3.org/2000/svg" viewBox="0 0 707.09 53.86"><defs><style>.cls-1,.cls-2{fill:#fff;}.cls-1{fill-rule:evenodd;}.cls-3{fill:#eb6100;}.cls-4{fill:#8fc31f;}.cls-5{fill:#00a0e9;}.cls-6{fill:#fcc800;}</style></defs><title>dark_bg_ch</title><g id="图层_2" data-name="图层 2"><g id="图层_1-2" data-name="图层 1"><path class="cls-1" d="M611.4,29.44h0a20.44,20.44,0,0,1-4.07,5.83,19.22,19.22,0,0,1-9,4.35,18.52,18.52,0,0,1,2.22,3.74,36.24,36.24,0,0,0,10.24-5.79,33.2,33.2,0,0,0,3.52-3.9,17.22,17.22,0,0,0,2.25,5.6,22.29,22.29,0,0,0,5.15,4.36c.28-.3,1.47-1.32,3.63-3.08a.51.51,0,0,1,.24-.17,6.23,6.23,0,0,0,.74-.62,10,10,0,0,1-5.77-4.25,12.72,12.72,0,0,1-1.8-6.07c4.47,0,7.59,0,9.38.14l1.14-4.07q-4,.1-11,.1l2-5.82c5,0,8.18,0,9.41.07L630.79,16l-5.84.09c1.63-1.74,3.15-3.44,4.57-5.12a20.83,20.83,0,0,1-4.62-1.69,24.21,24.21,0,0,1-5,6,8.88,8.88,0,0,1,2.14.84h-8.47a31.59,31.59,0,0,1,4.14-1.51c-.13-.37-.25-.75-.39-1.19l-1.66-4.22a50,50,0,0,1-5.28,1.65,19.38,19.38,0,0,1,1.91,5.27l-5.8-.09-1.07,3.87,9.39-.07q-.78,2.79-1.82,5.82l-9.59-.1-1.13,4.07c1.82-.07,4.89-.12,9.18-.14M595,32.6h0a53.07,53.07,0,0,1-5.24.86l1.35-4.83h5Zm-.95-14.43h0l1.11-4h5l-1.1,4Zm3,6.9h-5l1-3.42h5Zm-12.64,9.11h0l-2.61.33a14.18,14.18,0,0,1,.23,4.25c1.07-.3,5-1,11.83-2.28l-2.08,6.74h5.48c.44-1.95,1.12-4.53,2-7.78a30.57,30.57,0,0,1,3.13-.47l1.35-4.14c-.94.3-2.1.61-3.45,1l4.92-17.58,2.55.11L609,10.46q-10,.31-20.19,0l-1.09,3.85,2.42-.11Zm-38.87-5.62h0L548.84,24h10.52l-2.45,4.53Zm7.13,8h0L529,36.43l-1.3,4.63,37.91-.1c1.56,0,3.19,0,4.88.1l1.31-4.63-12.52.14.88-1.63c1-2.16,2.82-5.67,5.43-10.54.65-1.3,1.49-2.82,2.53-4.58L551.65,20l2.43-3.6q16,0,20.7.18L576.06,12q-22.08.31-37.79,0L537,16.54c2.41-.09,6-.14,10.94-.18q-6.46,9.93-11.36,16.28c1.76-.07,7.93-.13,18.46-.14Zm-59.31.35h0a17.56,17.56,0,0,1,1.66-3.71A162.78,162.78,0,0,1,475,37.06a19.67,19.67,0,0,1,1.11,4.41c3.42-.95,9.13-2.23,17.18-3.87Zm-7-17.64h0l10.06-8.2a28.65,28.65,0,0,1-5-2.09,53.93,53.93,0,0,1-9.92,9,17.46,17.46,0,0,1-1.74.93,18.2,18.2,0,0,1-.56,4.25c1.79-.18,4-.26,6.79-.3a41.24,41.24,0,0,1-8.33,5.23,23.14,23.14,0,0,1,.49,4.06A166,166,0,0,1,495,30.44a21.56,21.56,0,0,1,2.35-4.11q-5.31.59-11.09,1.06,9.61-6.83,14.39-10.41a22.48,22.48,0,0,1-4.21-2.5,70.44,70.44,0,0,1-5.77,4.94Zm15.74-7.89h0L501,15.68c1.93-.07,7.18-.13,15.75-.14l-2,7q-11.21,0-14.77-.11l-4.67,17.31a4,4,0,0,0-.14,1,1.46,1.46,0,0,0,1,1.25c2.36.75,7.66,1,15.89.72a7,7,0,0,0,3.63-1.07,29.31,29.31,0,0,0,4.51-5.38,23.52,23.52,0,0,1-5-2,10,10,0,0,1-3,4,6.63,6.63,0,0,1-3.13.55h-4.35a8.25,8.25,0,0,1-2.67-.34.78.78,0,0,1-.61-1l3.07-11c7.8,0,12.72.06,14.77.14q1.74-7.42,4.25-15.15Q512.33,11.6,502.17,11.39ZM447.24,29.58h0l1.7-6.09h5.8L453,29.58ZM433,19.14,426.43,19l-1.28,4.62c2.19-.09,4.42-.13,6.64-.16l-5.2,17.89q17.79-.32,36,0l1.28-4.53L434,37l3.79-13.46h5.32L440,33.93q10.1-.32,18,0c.35-1.61,1.28-5.09,2.75-10.44,3.07,0,5.87.05,8.43.16L470.51,19l-8.5.11c1.11-3.92,1.95-6.71,2.54-8.4h-6.43L456,19.14h-5.8l2.44-8.22h-6.14l-2.1,8.22H439q1.67-5.88,2.65-8.71h-6.38Z"/><path class="cls-1" d="M642,10h0a3.6,3.6,0,0,0-2.51-1A3.55,3.55,0,0,0,637,10a3.56,3.56,0,0,0,0,5,3.55,3.55,0,0,0,2.49,1A3.54,3.54,0,0,0,642,10m-2.51-1.47a3.93,3.93,0,0,1,2.81,1.16,4,4,0,0,1,0,5.63,4,4,0,1,1-2.81-6.79Z"/><path class="cls-1" d="M638.44,12.2h1.23a1.93,1.93,0,0,0,.6-.07.55.55,0,0,0,.33-.26.62.62,0,0,0,.12-.39.61.61,0,0,0-.22-.49,1,1,0,0,0-.69-.19h-1.37Zm-.56,2.39V10.32h1.9a2.79,2.79,0,0,1,.87.11,1.09,1.09,0,0,1,.48.4,1.24,1.24,0,0,1,.17.65,1.08,1.08,0,0,1-.3.77,1.4,1.4,0,0,1-.91.39,2.11,2.11,0,0,1,.35.23,3.09,3.09,0,0,1,.48.56l.73,1.16h-.72l-.56-.88c-.16-.26-.3-.45-.4-.6a1.24,1.24,0,0,0-.3-.28.77.77,0,0,0-.24-.12l-.32,0h-.67v1.9Z"/><path class="cls-2" d="M399.84,22.14c0-.84,0-1.74-.11-2.73h2.1c-.07.91-.1,1.83-.1,2.73v2.94h9.34c-.07,1.26-.11,2.42-.11,3.47v10.6c0,1.12,0,2.52.11,4.2H409V41.67H392.39v1.78h-2.1c.07-1.61.1-2.94.1-4V28.34c0-1,0-2.07-.1-3.26h9.55Zm0,10.29V26.76h-7.45v5.67Zm0,7.56V34.11h-7.45V40Zm9-7.56V26.76h-7.14v5.67Zm0,7.56V34.11h-7.14V40Z"/><path class="cls-2" d="M660.59,37.32v-8.4c-1.26,0-2.48,0-3.67.1V27c1.33.07,2.62.1,3.88.1h1.79c-.07,1.33-.11,2.38-.11,3.15V36.9c1.47,1.82,4.25,2.74,8.35,2.78a62.79,62.79,0,0,0,9.5-.47,8.55,8.55,0,0,0-1,2.51h-6.82a32.5,32.5,0,0,1-4.57-.26,15,15,0,0,1-3.09-.73,7.76,7.76,0,0,1-2.31-1.37c-.7-.59-1.52-.47-2.47.37a26,26,0,0,0-2.15,2.1c-.49-.56-1.05-1.23-1.68-2A35.14,35.14,0,0,1,660.59,37.32ZM661.12,24A20.76,20.76,0,0,0,658,20l1.47-1.26a32.52,32.52,0,0,1,3.36,4Zm7.56,12.22a8.4,8.4,0,0,0-2.73.69l-1.05-2.21a5.38,5.38,0,0,0,2.2-2.31,15.49,15.49,0,0,0,1.79-4.83c-2.38,0-4.2,0-5.46.11v-2q2,.1,8.08.1t7.87-.1v2q-1.78-.11-8.18-.11A20,20,0,0,1,670,30.6a37.27,37.27,0,0,1-2.15,3.88l7.45-.63a20,20,0,0,0-2.1-3,6.07,6.07,0,0,0,1.57-1.16,64.18,64.18,0,0,1,4.31,6.3c-.63.35-1.26.74-1.89,1.16-.35-.63-.7-1.23-1-1.79C672.49,35.74,670,36,668.68,36.21Zm8.92-14.32c-1.33-.07-3.33-.11-6-.11s-4.62,0-6.09.11v-2q1.89.11,6,.11t6.09-.11Z"/><path class="cls-2" d="M692.4,20.73h5.77c0-.63,0-1.43-.1-2.41h2.3c-.07.84-.1,1.64-.1,2.41h2.83c1.33,0,2.66,0,4-.1v1.78c-1.12-.07-2.45-.1-4-.1h-2.83c0,.42,0,1.12.1,2.1h-2.2v-2.1H692.4v2.1h-2.21c.07-.91.11-1.61.11-2.1h-2.52c-1.4,0-2.87,0-4.41.1V20.63c1.54.07,3,.1,4.41.1h2.52c0-.63,0-1.4-.11-2.31h2.31C692.43,19.26,692.4,20,692.4,20.73Zm12.28,9V26.92H685.89v3.26h-2.1a19.06,19.06,0,0,0,.11-2.1c0-.84,0-1.75-.11-2.73h23c-.07.7-.11,1.43-.11,2.2s0,1.44.11,2.21Zm-.53,8.92a31.49,31.49,0,0,0,.21,3.46h-2.31V41H688.72v1.47h-2.1c.07-1.05.11-2.21.11-3.46s0-2.52-.11-3.57h17.74A26.17,26.17,0,0,0,704.15,38.68Zm-2.1-7.45c0,.91,0,1.82.11,2.73H688.41c.07-.91.1-1.82.1-2.73s0-1.89-.1-2.73h13.75C702.09,29.34,702.05,30.25,702.05,31.23Zm0,8.18V37H688.72v2.41Zm-1.89-7V30.07H690.3v2.31Z"/><path class="cls-2" d="M281.57,10.69l12.2,32.43h-6.19l-2.87-8H271.94l-2.76,8H263l12.21-32.43Zm-3.35,6-4.79,13.65h9.72l-4.77-13.65Z"/><polygon class="cls-2" points="296.52 19.87 315.08 19.87 315.08 22.07 302.89 38.78 315.15 38.78 315.15 43.12 295.66 43.12 295.66 40.52 307.66 24.21 296.52 24.21 296.52 19.87"/><path class="cls-2" d="M338.43,19.87V43.12h-5.52V40.06h-.09a7.39,7.39,0,0,1-2.9,2.48,9.25,9.25,0,0,1-4.08.89,8,8,0,0,1-6.17-2.29q-2.12-2.3-2.11-7.13V19.87h5.54V33.35a7.11,7.11,0,0,0,1.16,4.42,4.2,4.2,0,0,0,3.52,1.48,4.67,4.67,0,0,0,3.73-1.64,6.37,6.37,0,0,0,1.4-4.28V19.87Z"/><path class="cls-2" d="M354.9,19.49a7,7,0,0,1,1.18.09,5.06,5.06,0,0,1,.88.23v5.54a4.49,4.49,0,0,0-1.26-.6,6.12,6.12,0,0,0-2-.29,4.26,4.26,0,0,0-3.4,1.7q-1.4,1.69-1.39,5.22V43.12h-5.47V19.87h5.47v3.67H349a6.45,6.45,0,0,1,2.26-3,6.18,6.18,0,0,1,3.64-1.07"/><path class="cls-2" d="M376.65,37.26v4.5a11.73,11.73,0,0,1-3.55,1.39,20,20,0,0,1-4.68.53q-5.31,0-8.26-3.14c-2-2.1-3-5-3-8.75a12.79,12.79,0,0,1,3.15-8.9,10.31,10.31,0,0,1,8-3.49,9.59,9.59,0,0,1,7.49,3c1.79,2,2.68,4.68,2.68,8.15v2.65H362.61q.36,3.49,2.25,4.89a8,8,0,0,0,4.87,1.39,11.71,11.71,0,0,0,3.76-.6,12.12,12.12,0,0,0,3.16-1.57m-3.5-8.12A6.05,6.05,0,0,0,371.89,25a4.44,4.44,0,0,0-3.53-1.43A5.08,5.08,0,0,0,364.83,25a7.22,7.22,0,0,0-2.08,4.14Z"/><path class="cls-2" d="M105,10.7V43.12H99.32V17.71h-.09L89.17,43.12H85.44L75.13,17.71h-.07V43.12h-5.2V10.7h8.07l9.32,24h.13l9.84-24Zm4.71,2.46a3,3,0,0,1,1-2.27,3.48,3.48,0,0,1,4.74,0,3.08,3.08,0,0,1,1,2.25,2.93,2.93,0,0,1-1,2.24,3.35,3.35,0,0,1-2.37.9,3.29,3.29,0,0,1-2.36-.91,3,3,0,0,1-1-2.23m6,30h-5.47V19.88h5.47Zm16.6-4a7.52,7.52,0,0,0,2.69-.57,11.33,11.33,0,0,0,2.71-1.49v5.09a11.25,11.25,0,0,1-3,1.13,16.63,16.63,0,0,1-3.65.38,11.05,11.05,0,0,1-11.56-11.53,13.26,13.26,0,0,1,3.28-9.23q3.28-3.63,9.29-3.63a12.86,12.86,0,0,1,3.11.39,10.5,10.5,0,0,1,2.5.92v5.24a11.45,11.45,0,0,0-2.59-1.43,7.43,7.43,0,0,0-2.7-.51,6.84,6.84,0,0,0-5.22,2.1,7.9,7.9,0,0,0-2,5.68,7.52,7.52,0,0,0,1.91,5.49,6.9,6.9,0,0,0,5.19,2m21-19.65a6.87,6.87,0,0,1,1.17.09,4.83,4.83,0,0,1,.88.23v5.54a4.41,4.41,0,0,0-1.25-.6,6.17,6.17,0,0,0-2-.29,4.24,4.24,0,0,0-3.4,1.7q-1.39,1.69-1.39,5.22V43.12H141.8V19.88h5.48v3.66h.09a6.38,6.38,0,0,1,2.26-3,6.16,6.16,0,0,1,3.64-1.07m2.35,12.34q0-5.76,3.26-9.13t9-3.37q5.45,0,8.51,3.25t3.06,8.76a12.37,12.37,0,0,1-3.25,9,11.8,11.8,0,0,1-8.86,3.34,11.56,11.56,0,0,1-8.58-3.18q-3.18-3.16-3.18-8.67m5.7-.18A8.34,8.34,0,0,0,163,37.22a5.88,5.88,0,0,0,4.72,1.92,5.52,5.52,0,0,0,4.55-1.92,8.91,8.91,0,0,0,1.56-5.7,8.6,8.6,0,0,0-1.62-5.67,5.63,5.63,0,0,0-4.53-1.91A5.72,5.72,0,0,0,163,26a8.67,8.67,0,0,0-1.66,5.7M187.63,26a2.33,2.33,0,0,0,.75,1.84,12.53,12.53,0,0,0,3.3,1.69,11.09,11.09,0,0,1,4.6,2.95,6.1,6.1,0,0,1,1.32,4,6.37,6.37,0,0,1-2.52,5.27,10.69,10.69,0,0,1-6.82,2,16.59,16.59,0,0,1-3.19-.35,14.32,14.32,0,0,1-3-.89V37.06a13.93,13.93,0,0,0,3.21,1.65,9.64,9.64,0,0,0,3.12.61,5.53,5.53,0,0,0,2.74-.52,1.86,1.86,0,0,0,.88-1.74,2.38,2.38,0,0,0-.92-1.91,13.48,13.48,0,0,0-3.47-1.8,10.57,10.57,0,0,1-4.29-2.85,6.2,6.2,0,0,1-1.27-4,6.38,6.38,0,0,1,2.5-5.17,10,10,0,0,1,6.48-2,15.71,15.71,0,0,1,2.73.27,11.9,11.9,0,0,1,2.54.7v5.2a11.55,11.55,0,0,0-2.54-1.24,8.34,8.34,0,0,0-2.87-.52,4.16,4.16,0,0,0-2.43.61,1.92,1.92,0,0,0-.87,1.67M200,31.83q0-5.76,3.26-9.13t9-3.37q5.44,0,8.51,3.25a12.24,12.24,0,0,1,3.07,8.76,12.37,12.37,0,0,1-3.26,9q-3.25,3.34-8.86,3.34a11.59,11.59,0,0,1-8.58-3.18Q200,37.34,200,31.83m5.7-.18a8.34,8.34,0,0,0,1.65,5.57A5.88,5.88,0,0,0,212,39.14a5.52,5.52,0,0,0,4.55-1.92,8.91,8.91,0,0,0,1.56-5.7,8.6,8.6,0,0,0-1.62-5.67A5.63,5.63,0,0,0,212,23.94a5.72,5.72,0,0,0-4.67,2,8.67,8.67,0,0,0-1.66,5.7M242,24.35h-8.15V43.12h-5.54V24.35H224.4V19.88h3.89V16.64a8,8,0,0,1,2.38-6,8.37,8.37,0,0,1,6.12-2.34,13.18,13.18,0,0,1,1.76.1,6.67,6.67,0,0,1,1.36.31v4.72a6.24,6.24,0,0,0-.95-.38,4.93,4.93,0,0,0-1.56-.23,3.3,3.3,0,0,0-2.65,1.08,4.76,4.76,0,0,0-.92,3.17v2.81H242V14.65L247.47,13v6.9H253v4.47h-5.54V35.23a4.59,4.59,0,0,0,.78,3,3.14,3.14,0,0,0,2.45.88,3.65,3.65,0,0,0,1.14-.23,5.29,5.29,0,0,0,1.17-.54v4.52a6.09,6.09,0,0,1-1.73.54,11.56,11.56,0,0,1-2.39.25,6.76,6.76,0,0,1-5.18-1.84c-1.16-1.23-1.73-3.08-1.73-5.55Z"/><rect class="cls-3" width="25.6" height="25.6"/><rect class="cls-4" x="28.26" width="25.6" height="25.6"/><rect class="cls-5" y="28.26" width="25.6" height="25.6"/><rect class="cls-6" x="28.26" y="28.26" width="25.6" height="25.6"/></g></g></svg>