<svg version="1.1" id="Layer_1" xmlns="http://www.w3.org/2000/svg" xmlns:xlink="http://www.w3.org/1999/xlink" width="140px" x="0px" y="0px" viewBox="0 0 159 129" style="enable-background:new 0 0 159 129;height:96px;display: block;" xml:space="preserve">
							<style type="text/css">
								.resouse-manager0{fill:#3C98C5;}
								.resouse-manager1{fill:#5AB3D8;}
								.resouse-manager2{fill:#AAD8EB;}
								.resouse-manager3{fill:#797979;}
							</style>
							<g>
								<path class="resouse-manager0" d="M79,55.9L32.3,29c-0.7-0.4-0.7-1.3,0-1.7L79,0.5c0.3-0.2,0.7-0.2,1,0l46.7,26.8c0.7,0.4,0.7,1.3,0,1.7L80,55.9
									C79.7,56.1,79.3,56.1,79,55.9z"/>
								<path class="resouse-manager1" d="M73.3,66.7l0.1,53.9c0,0.8-0.8,1.3-1.5,0.9l-46.6-27c-0.3-0.2-0.5-0.5-0.5-0.9l-0.1-53.9
									c0-0.8,0.8-1.3,1.5-0.9l46.6,27C73.1,66.1,73.3,66.4,73.3,66.7z"/>
								<path class="resouse-manager2" d="M133.8,94.5l-46.6,27c-0.7,0.4-1.5-0.1-1.5-0.9l0.1-53.9c0-0.4,0.2-0.7,0.5-0.9l46.6-27
									c0.7-0.4,1.5,0.1,1.5,0.9l-0.1,53.9C134.3,94,134.1,94.3,133.8,94.5z"/>
								<path class="resouse-manager3" d="M28.5,128.7c-0.8,0-1.5-0.2-2.2-0.7l-24-16c-1.1-0.7-1.8-2-1.8-3.3v-88c0-1.3,0.7-2.6,1.8-3.3l24-16
									c1.8-1.2,4.3-0.7,5.5,1.1c1.2,1.8,0.7,4.3-1.1,5.5L8.5,22.8v83.7l22.2,14.8c1.8,1.2,2.3,3.7,1.1,5.5
									C31.1,128,29.8,128.7,28.5,128.7z"/>
								<path class="resouse-manager3" d="M130.5,128.7c0.8,0,1.5-0.2,2.2-0.7l24-16c1.1-0.7,1.8-2,1.8-3.3v-88c0-1.3-0.7-2.6-1.8-3.3l-24-16
									c-1.8-1.2-4.3-0.7-5.5,1.1c-1.2,1.8-0.7,4.3,1.1,5.5l22.2,14.8v83.7l-22.2,14.8c-1.8,1.2-2.3,3.7-1.1,5.5
									C127.9,128,129.2,128.7,130.5,128.7z"/>
							</g>
							</svg>