<svg version="1.1" id="Layer_1" xmlns="http://www.w3.org/2000/svg" xmlns:xlink="http://www.w3.org/1999/xlink" x="0px" y="0px"
                       width="28px" height="28px" viewBox="0 0 40 40" enable-background="new 0 0 40 40" xml:space="preserve" fill="#0078d4">
                      <g>
                                      <path d="M5,13.75h8.75V5H5C5,7.786,5,10.916,5,13.75z" />
                                      <path d="M0,18.75h18.75V0H0V18.75z M2.5,2.5h13.75v13.75H2.5V2.5z" />
                                      <rect x="21.25" y="21.25" width="5" height="5" />
                                      <path d="M32.5,26.25h-6.25v6.25h-5V40h1.936h1.992h3.984h1.99h0.311h1.639H40v-6.416v-2.036v-0.132v-7.92c0-0.842,0-2.246,0-2.246
		                      c-3.009,0-5.288,0-7.5,0V26.25z M36.25,36.25h-5v-5h5V36.25z" />
                                      <g>
                                      <rect x="26.25" y="5" width="8.75" height="8.75" />
                                      <path d="M21.25,0v18.75H40V0H21.25z M37.5,16.25H23.75V2.5H37.5V16.25z" />
	                      </g>
                                      <g>
                                      <path d="M13.75,26.25H5c0,2.785,0,5.916,0,8.75h8.75V26.25z" />
                                      <path d="M0,21.25V40h18.75V21.25H0z M16.25,37.5H2.5V23.75h13.75V37.5z" />
	                      </g>
                      </g>
                    </svg>