<svg id="Layer_1" data-name="Layer 1" xmlns="http://www.w3.org/2000/svg" viewBox="0 0 140 96" width="140px" height="96px">
									<defs>
										<style>
											.storage-3-1 {
												fill: #89919c;
											}
											
											.storage-3-1,
											.storage-3-2,
											.storage-3-3,
											.storage-3-4 {
												fill-rule: evenodd;
											}
											
											.storage-3-2 {
												fill: #727982;
											}
											
											.storage-3-3 {
												fill: #fff;
											}
											
											.storage-3-4 {
												fill: #fab300;
											}
										</style>
									</defs>
									<title>homepage-icons</title>
									<path class="storage-3-1" d="M29,9.5h82a3,3,0,0,1,3,3v71a3,3,0,0,1-3,3H29a3,3,0,0,1-3-3v-71A3,3,0,0,1,29,9.5Z" />
									<path class="storage-3-2" d="M29,9.5h82a3,3,0,0,1,3,3v16H26v-16A3,3,0,0,1,29,9.5Z" />
									<path class="storage-3-3" d="M32,32.51h76v48H32Z" />
									<path class="storage-3-4" d="M32,71.5H48v9H32Z" />
									<path class="storage-3-4" d="M52,71.5H68v9H52Z" />
									<path class="storage-3-4" d="M72,71.5H88v9H72Z" />
									<path class="storage-3-4" d="M92,71.5h16v9H92Z" />
									<path class="storage-3-4" d="M52,58.5H68v9H52Z" />
									<path class="storage-3-4" d="M72,58.5H88v9H72Z" />
									<path class="storage-3-1" d="M109,45.49v-4H92v-10H88v10H72v-10H68v10H52v-10H48v10H31v4H48v9H31v4H48v9H31v4H48v9h4v-9H68v9h4v-9H88v9h4v-9h17v-4H92v-9h17v-4H92v-9Zm-57,0H68v9H52Zm0,22v-9H68v9Zm36,0H72v-9H88Zm0-13H72v-9H88Z"
									/>
								</svg>