<svg id="Layer_1" data-name="Layer 1" xmlns="http://www.w3.org/2000/svg" viewBox="0 0 140 96" width="140px" height="96px">
									<defs>
										<style>
											.cls-1-1 {
												fill: #404b59;
											}
											
											.cls-1-1,
											.cls-1-2,
											.cls-1-3,
											.cls-1-7 {
												fill-rule: evenodd;
											}
											
											.cls-1-2 {
												fill: #5e6d81;
											}
											
											.cls-1-3 {
												fill: #51b7d9;
											}
											
											.cls-1-4,
											.cls-1-5,
											.cls-1-6 {
												fill: #fff;
											}
											
											.cls-1-4 {
												opacity: 0.6;
											}
											
											.cls-1-5 {
												opacity: 0.8;
											}
											
											.cls-1-7 {
												fill: #a5bf09;
											}
										</style>
									</defs>
									<title>homepage-icons</title>
									<path class="cls-1-1" d="M56,70.5H84a21.41,21.41,0,0,0-2,8c0,4,3,8,3,8H55s4-4,4-8S56.08,70.46,56,70.5Z" />
									<path class="cls-1-2" d="M27,4.5h86a5,5,0,0,1,5,5v60a5,5,0,0,1-5,5H27a5,5,0,0,1-5-5V9.5A5,5,0,0,1,27,4.5Z" />
									<path class="cls-1-3" d="M28,10.5h84v58H28Z" />
									<path class="cls-1-4" d="M70.93,18.48,52,28.1,71,38.5,90,28Z" />
									<path class="cls-1-5" d="M52,50.44,70,60.5V40.93L52,30.47Z" />
									<path class="cls-1-6" d="M72,40.93V60.5L90,50.44v-20Z" />
									<path class="cls-1-7" d="M70,6.5a1,1,0,1,1-1,1A1,1,0,0,1,70,6.5Z" />
									<path class="cls-1-2" d="M42,84.5H98v7H42Z" />
								</svg>